<svg width="34" height="16" viewBox="0 0 34 16" fill="none" xmlns="http://www.w3.org/2000/svg">
<g clip-path="url(#clip0_2541_114086)">
<path d="M16.9985 15.7424C26.2349 15.7424 33.7225 13.1707 33.7225 9.99838C33.7225 6.82607 26.2349 4.25439 16.9985 4.25439C7.76203 4.25439 0.274414 6.82607 0.274414 9.99838C0.274414 13.1707 7.76203 15.7424 16.9985 15.7424Z" fill="black"/>
<path fill-rule="evenodd" clip-rule="evenodd" d="M1.76999 7.95536C0.95748 8.61514 0.549941 9.30629 0.549941 9.99854C0.549941 10.6908 0.95748 11.3819 1.76999 12.0417C2.58196 12.701 3.7728 13.3065 5.26816 13.8201C8.25673 14.8465 12.4038 15.4865 16.998 15.4865C21.5923 15.4865 25.7394 14.8465 28.7279 13.8201C30.2233 13.3065 31.4141 12.701 32.2261 12.0417C33.0386 11.3819 33.4461 10.6908 33.4461 9.99854C33.4461 9.30629 33.0386 8.61514 32.2261 7.95536C31.4141 7.29603 30.2233 6.6906 28.7279 6.17701C25.7394 5.15057 21.5923 4.51056 16.998 4.51056C12.4038 4.51056 8.25673 5.15057 5.26816 6.17701C3.7728 6.6906 2.58196 7.29603 1.76999 7.95536ZM5.07655 5.69683C8.1409 4.64436 12.3558 3.99854 16.998 3.99854C21.6403 3.99854 25.8552 4.64436 28.9195 5.69683C30.4506 6.2227 31.709 6.855 32.5896 7.57007C33.4696 8.28469 33.998 9.10463 33.998 9.99854C33.998 10.8924 33.4696 11.7124 32.5896 12.427C31.709 13.1421 30.4506 13.7744 28.9195 14.3002C25.8552 15.3527 21.6403 15.9985 16.998 15.9985C12.3558 15.9985 8.1409 15.3527 5.07655 14.3002C3.54545 13.7744 2.28711 13.1421 1.40651 12.427C0.526459 11.7124 -0.00195312 10.8924 -0.00195312 9.99854C-0.00195312 9.10463 0.526459 8.28469 1.40651 7.57007C2.28711 6.855 3.54545 6.2227 5.07655 5.69683Z" fill="url(#paint0_linear_2541_114086)"/>
<path d="M16.9987 12.3164C22.7031 12.3164 27.3275 11.0035 27.3275 9.38392C27.3275 7.76434 22.7031 6.45142 16.9987 6.45142C11.2943 6.45142 6.66992 7.76434 6.66992 9.38392C6.66992 11.0035 11.2943 12.3164 16.9987 12.3164Z" fill="black"/>
<path fill-rule="evenodd" clip-rule="evenodd" d="M7.64294 8.45003C7.14838 8.782 6.94545 9.10097 6.94545 9.38408C6.94545 9.66718 7.14838 9.98615 7.64294 10.3181C8.13123 10.6459 8.85557 10.9517 9.77548 11.2129C11.6119 11.7342 14.1656 12.0606 16.9983 12.0606C19.831 12.0606 22.3847 11.7342 24.2211 11.2129C25.141 10.9517 25.8653 10.6459 26.3536 10.3181C26.8482 9.98615 27.0511 9.66718 27.0511 9.38408C27.0511 9.10097 26.8482 8.782 26.3536 8.45003C25.8653 8.12226 25.141 7.81646 24.2211 7.55529C22.3847 7.0339 19.831 6.70758 16.9983 6.70758C14.1656 6.70758 11.6119 7.0339 9.77548 7.55529C8.85557 7.81646 8.13123 8.12226 7.64294 8.45003ZM9.61398 7.06567C11.5159 6.5257 14.1265 6.19556 16.9983 6.19556C19.87 6.19556 22.4807 6.5257 24.3826 7.06567C25.3318 7.33518 26.1201 7.66128 26.6771 8.0352C27.2279 8.4049 27.603 8.85739 27.603 9.38408C27.603 9.91076 27.2279 10.3633 26.6771 10.733C26.1201 11.1069 25.3318 11.433 24.3826 11.7025C22.4807 12.2424 19.87 12.5726 16.9983 12.5726C14.1265 12.5726 11.5159 12.2424 9.61398 11.7025C8.66475 11.433 7.87647 11.1069 7.31943 10.733C6.76867 10.3633 6.39355 9.91076 6.39355 9.38408C6.39355 8.85739 6.76867 8.4049 7.31943 8.0352C7.87647 7.66128 8.66475 7.33518 9.61398 7.06567Z" fill="url(#paint1_linear_2541_114086)"/>
</g>
<circle cx="20" cy="5" r="5" fill="#2775CA"/>
<path d="M19.0625 8.47645C19.0625 8.59364 18.9687 8.66004 18.8594 8.62489C17.3437 8.14051 16.25 6.72645 16.25 5.05067C16.25 3.37879 17.3437 1.96083 18.8594 1.47645C18.9727 1.44129 19.0625 1.5077 19.0625 1.62489V1.91786C19.0625 1.99598 19.0039 2.08583 18.9297 2.11317C17.7305 2.55458 16.875 3.70692 16.875 5.05067C16.875 6.39832 17.7305 7.54676 18.9297 7.98426C19.0039 8.01161 19.0625 8.10145 19.0625 8.17957V8.47645Z" fill="white"/>
<path d="M20.3127 7.39453C20.3127 7.48047 20.2424 7.55078 20.1565 7.55078H19.844C19.758 7.55078 19.6877 7.48047 19.6877 7.39453V6.90234C19.0041 6.80859 18.6721 6.42969 18.5823 5.90625C18.5666 5.81641 18.6369 5.73828 18.7268 5.73828H19.0823C19.1565 5.73828 19.219 5.79297 19.2346 5.86328C19.301 6.17187 19.4807 6.41016 20.0276 6.41016C20.4299 6.41016 20.719 6.18359 20.719 5.84766C20.719 5.51172 20.551 5.38281 19.9573 5.28516C19.0823 5.16797 18.6682 4.90234 18.6682 4.21875C18.6682 3.69141 19.0705 3.27734 19.6877 3.19141V2.70703C19.6877 2.62109 19.758 2.55078 19.844 2.55078H20.1565C20.2424 2.55078 20.3127 2.62109 20.3127 2.70703V3.20312C20.8166 3.29297 21.1369 3.57812 21.2424 4.05469C21.2619 4.14453 21.1916 4.22656 21.0979 4.22656H20.7698C20.6994 4.22656 20.6409 4.17969 20.6213 4.11328C20.5315 3.8125 20.3166 3.67969 19.9416 3.67969C19.5276 3.67969 19.3127 3.87891 19.3127 4.16016C19.3127 4.45703 19.4338 4.60547 20.0705 4.69531C20.9299 4.8125 21.3752 5.05859 21.3752 5.78906C21.3752 6.34375 20.9612 6.79297 20.3166 6.89453V7.39453H20.3127Z" fill="white"/>
<path d="M21.1406 8.62489C21.0273 8.66004 20.9375 8.59364 20.9375 8.47645V8.18348C20.9375 8.09754 20.9883 8.01551 21.0703 7.98817C22.2656 7.55067 23.125 6.39832 23.125 5.05457C23.125 3.70692 22.2695 2.55848 21.0703 2.12098C20.9961 2.09364 20.9375 2.00379 20.9375 1.92567V1.6327C20.9375 1.51551 21.0313 1.44911 21.1406 1.48426C22.6562 1.96083 23.75 3.37879 23.75 5.05067C23.75 6.72645 22.6562 8.14051 21.1406 8.62489Z" fill="white"/>
<path d="M13 0C15.7613 0 18 2.2387 18 5C18 7.7613 15.7612 10 13 10C10.2388 10 8 7.7619 8 5C8 2.2381 10.2384 0 13 0" fill="#53AE94"/>
<path fill-rule="evenodd" clip-rule="evenodd" d="M13.6174 3.59009V4.33389L13.6178 4.33409C14.9978 4.39779 16.0352 4.67139 16.0352 4.99909C16.0352 5.32679 14.9978 5.60039 13.6178 5.66409V8.04679H12.3878V5.66429C11.0058 5.60039 9.96582 5.32659 9.96582 4.99859C9.96582 4.67059 11.0053 4.39679 12.3878 4.33329V3.59009H10.6867V2.45679H15.3183V3.59009H13.6174ZM13.6178 5.46169V5.46229L13.618 5.46179C14.8366 5.40749 15.7466 5.19449 15.7466 4.94089C15.7466 4.68729 14.837 4.47439 13.618 4.42009V5.25059C13.583 5.25379 13.3923 5.26959 13.013 5.26959C12.6972 5.26959 12.4684 5.25609 12.3884 5.25059V4.42009C11.1671 4.47429 10.2553 4.68669 10.2553 4.94119C10.2553 5.19569 11.167 5.40839 12.3884 5.46249V5.46149C12.4671 5.46559 12.6904 5.47459 13.0078 5.47459C13.4048 5.47459 13.5831 5.46389 13.6178 5.46169Z" fill="white"/>
<defs>
<linearGradient id="paint0_linear_2541_114086" x1="-0.000280735" y1="9.99854" x2="33.9997" y2="9.99854" gradientUnits="userSpaceOnUse">
<stop stop-color="#009BE0"/>
<stop offset="0.51" stop-color="#05000B"/>
<stop offset="1" stop-color="#E9540E"/>
</linearGradient>
<linearGradient id="paint1_linear_2541_114086" x1="6.39523" y1="9.38407" x2="27.6047" y2="9.38407" gradientUnits="userSpaceOnUse">
<stop stop-color="#009BE0"/>
<stop offset="0.51" stop-color="#05000B"/>
<stop offset="1" stop-color="#E9540E"/>
</linearGradient>
<clipPath id="clip0_2541_114086">
<rect width="34" height="12" fill="white" transform="translate(0 4)"/>
</clipPath>
</defs>
</svg>
